<svg width="32" height="32" viewBox="0 0 32 32" fill="none" xmlns="http://www.w3.org/2000/svg">
<path d="M21.4194 20.35H18.086C17.6277 20.35 17.2527 20.725 17.2527 21.1834C17.2527 21.6417 17.6277 22.0167 18.086 22.0167H21.4194C21.8777 22.0167 22.2527 21.6417 22.2527 21.1834C22.2527 20.725 21.8777 20.35 21.4194 20.35Z" fill="#4B5258"/>
<path d="M19.8944 15.9917L20.7777 15.1084C21.3277 14.5584 21.636 13.825 21.636 13.05C21.636 12.275 21.336 11.5417 20.786 10.9917C19.686 9.89169 17.761 9.89169 16.661 10.9917L10.7277 16.9084C10.011 17.6334 9.66103 18.625 9.76936 19.6334L9.92769 21.0917C9.96936 21.475 10.2777 21.7834 10.661 21.825L12.1194 21.9834C12.2444 22 12.3694 22 12.4944 22C13.3777 22 14.2194 21.6584 14.8444 21.025L19.886 15.9834L19.8944 15.9917ZM19.6027 12.1667C19.836 12.4 19.9694 12.7167 19.9694 13.05C19.9694 13.3834 19.836 13.7 19.6027 13.9334L19.311 14.225L17.5444 12.4584L17.836 12.1667C18.311 11.6917 19.1277 11.6917 19.6027 12.1667ZM13.6777 19.8584C13.3194 20.2167 12.8194 20.3917 12.3194 20.3334L11.5277 20.2417L11.436 19.45C11.3777 18.9417 11.5527 18.45 11.911 18.0834L16.361 13.6334L18.1277 15.4L13.6777 19.85V19.8584Z" fill="#4B5258"/>
</svg>
